# xmcd CD database file
#
# Track frame offsets:
#	150
#	11025
#	23830
#	36480
#	47500
#	69130
#	85017
#	98020
#	113990
#	128170
#	145720
#	159367
#	172345
#	186575
#	203247
#	215597
#	229862
#	245042
#	258477
#
# Disc length: 3712 seconds
#
# Revision: 2
# Processed by: cddbd v1.5.1PL2 Copyright (c) Steve Scherf et al.
# Submitted via: CDex 1.51
#
DISCID=0f0e7e13
DTITLE=Various Artist - 19 Hot Country Requests Vol. II
DYEAR=1985
DGENRE=Country
TTITLE0=Ricky Skaggs/Uncle Pen
TTITLE1=Merle Haggard/Lets Chase Each Other Around The Room
TTITLE2=Exile/Give Me One More Chance
TTITLE3=George Jones/She's My Rock
TTITLE4=Willie Nelson/City Of New Orleans
TTITLE5=B.J. Thomas/Two Car Garage
TTITLE6=Ronnie McDowell/You Made A Wanted Man Of Me
TTITLE7=Charly McClain/Sentimental Ol' You
TTITLE8=Crystal Gayle/You Never Gave Up On Me
TTITLE9=Ricky Skaggs/You've Got A Lover
TTITLE10=Merle Haggard/That's The Way Love Goes
TTITLE11=George Jones/Tennessee Whiskey
TTITLE12=Lacy J. Dalton/16th Avenue
TTITLE13=David Allan Coe/Mona Lisa Lost Her Smile
TTITLE14=Johnny Rodriguez/Foolin'
TTITLE15=Willie Nelson/Why Do I Have To Choose
TTITLE16=Janie Fricke/You Don't Know Love
TTITLE17=Mickey Gilley/You've Really Got A Hold On Me
TTITLE18=Rosanne Cash/Blue Moon With Heartache
EXTD=YEAR: 1985
EXTT0=
EXTT1=
EXTT2=
EXTT3=
EXTT4=
EXTT5=
EXTT6=
EXTT7=
EXTT8=
EXTT9=
EXTT10=
EXTT11=
EXTT12=
EXTT13=
EXTT14=
EXTT15=
EXTT16=
EXTT17=
EXTT18=
PLAYORDER=
